<svg width="20" height="20" viewBox="0 0 20 20" fill="none" xmlns="http://www.w3.org/2000/svg">
<path d="M17.4105 3.58953C19.0174 5.19649 17.2262 9.59312 13.4097 13.4097C9.59312 17.2262 5.1965 19.0174 3.58953 17.4105C1.98256 15.8035 3.77378 11.4069 7.59033 7.59033C11.4069 3.77378 15.8035 1.98256 17.4105 3.58953Z" stroke="white"/>
<path d="M3.58953 3.58953C1.98256 5.19649 3.77378 9.59312 7.59033 13.4097C11.4069 17.2262 15.8035 19.0174 17.4105 17.4105C19.0174 15.8035 17.2262 11.4069 13.4097 7.59033C9.59312 3.77378 5.1965 1.98256 3.58953 3.58953Z" stroke="white"/>
<path d="M12.1667 10.5C12.1667 11.4205 11.4205 12.1667 10.5 12.1667C9.57953 12.1667 8.83333 11.4205 8.83333 10.5C8.83333 9.57953 9.57953 8.83333 10.5 8.83333C11.4205 8.83333 12.1667 9.57953 12.1667 10.5Z" stroke="white"/>
</svg>
