<svg width="22" height="26" viewBox="0 0 22 26" fill="none" xmlns="http://www.w3.org/2000/svg">
<path d="M14.9998 20.3333V21C14.9998 23.651 13.2089 25 10.9998 25C8.79066 25 6.9998 23.651 6.9998 21V20.3333M17.0472 7.15385C17.0472 3.75517 14.3397 1 10.9998 1C7.65992 1 4.95241 3.75517 4.95241 7.15385C4.95241 8.43452 5.19272 9.46956 4.48285 11.7692C4.22149 12.6159 3.15912 14.3342 2.03813 16.0108C0.821872 17.83 2.09538 20.3333 4.28366 20.3333C8.76109 20.3333 13.2385 20.3333 17.7159 20.3333C19.9042 20.3333 21.1777 17.83 19.9615 16.0108C18.8405 14.3342 17.7781 12.6159 17.5167 11.7692C16.8069 9.46956 17.0472 8.43452 17.0472 7.15385Z" stroke="#121212" stroke-width="1.5"/>
</svg>
